Coordinates
version=1
nRows=18
nColumns=22
inDegrees=yes

Units are S.I. units (second, meters, Newtons, ...)
If the header above contains a line with 'inDegrees', this indicates whether rotational values are in degrees (yes) or radians (no).

endheader
time	pelvis_tilt	pelvis_list	pelvis_rotation	pelvis_tx	pelvis_ty	pelvis_tz	hip_flexion_r	hip_adduction_r	hip_rotation_r	knee_angle_r	ankle_angle_r	subtalar_angle_r	hip_flexion_l	hip_adduction_l	hip_rotation_l	knee_angle_l	ankle_angle_l	subtalar_angle_l	lumbar_extension	lumbar_bending	lumbar_rotation
      3.42000000	     -6.45576066	      1.28071598	    -54.53463806	      0.09667316	      0.87705849	     -0.62728885	     28.45909020	      1.31591408	    -19.53815659	    -18.52874968	      5.25611365	     -4.70591678	     -0.11868123	    -10.35100401	    -22.12301294	    -16.72123014	     19.13988309	      8.68544983	     -5.06321635	      4.00352073	      0.86412908
      3.43000000	     -6.50463366	      1.64130729	    -55.21855494	      0.09938282	      0.87545611	     -0.62281845	     28.50021147	      1.46842749	    -19.67060322	    -15.93362437	      4.80530698	     -4.36678655	     -0.38058388	    -10.12401857	    -22.86352726	    -16.68491895	     19.43501994	      8.78783478	     -4.78976244	      3.92767879	      1.05174808
      3.44000000	     -6.50840102	      1.94479135	    -55.87110771	      0.10213423	      0.87388457	     -0.61821472	     28.45824123	      1.61578733	    -19.72668378	    -13.49913094	      4.50637703	     -3.78894337	     -0.71230972	     -9.89895804	    -23.54194950	    -16.66255880	     19.74481153	      9.02247045	     -4.58794187	      3.86726305	      1.25478118
      3.45000000	     -6.48945126	      2.25916598	    -56.50533668	      0.10493433	      0.87224109	     -0.61345953	     28.46133605	      1.71500434	    -19.77809276	    -11.35857440	      4.25413211	     -3.28076562	     -1.05662316	     -9.64672081	    -24.19974466	    -16.62573553	     20.02914451	      9.23037496	     -4.37040470	      3.80128805	      1.45341402
      3.46000000	     -6.43071592	      2.53294074	    -57.10659366	      0.10783215	      0.87060377	     -0.60853095	     28.45726941	      1.76388770	    -19.88576595	     -9.56481507	      4.09204034	     -2.80638844	     -1.46844707	     -9.38143262	    -24.80843132	    -16.57725759	     20.29699208	      9.47542052	     -4.19419840	      3.74605341	      1.63594819
      3.47000000	     -6.34586016	      2.76652439	    -57.68534816	      0.11081206	      0.86895639	     -0.60340452	     28.47912901	      1.76874929	    -20.07800186	     -8.19574883	      4.00830291	     -2.48848540	     -1.93812159	     -9.11840347	    -25.39340108	    -16.52844794	     20.54548291	      9.69426520	     -4.05052900	      3.71084651	      1.80768504
      3.48000000	     -6.22771855	      2.94450399	    -58.22044671	      0.11394499	      0.86733253	     -0.59805948	     28.50063693	      1.71634615	    -20.35231963	     -7.27567507	      4.01699118	     -2.25434683	     -2.48176386	     -8.85542946	    -25.89829937	    -16.48497053	     20.76520182	      9.95923066	     -3.94681843	      3.70013693	      1.93475756
      3.49000000	     -6.09127035	      3.07447572	    -58.72254738	      0.11717679	      0.86571006	     -0.59251116	     28.54202108	      1.61764009	    -20.68268377	     -6.82174537	      4.09172996	     -2.14171290	     -3.08121069	     -8.60369398	    -26.33405501	    -16.45018282	     20.98275098	     10.24696021	     -3.87771502	      3.71954207	      2.02742989
      3.50000000	     -5.94228421	      3.15788515	    -59.18253692	      0.12053114	      0.86410258	     -0.58675119	     28.59947772	      1.46822240	    -21.05705820	     -6.82356010	      4.16262891	     -2.16028912	     -3.72727056	     -8.36934123	    -26.69133195	    -16.43396717	     21.16646149	     10.57759485	     -3.83208847	      3.77323820	      2.06629508
      3.51000000	     -5.78810106	      3.20713291	    -59.59978731	      0.12397721	      0.86250629	     -0.58077947	     28.64947426	      1.28223798	    -21.40517349	     -7.18343387	      4.17902174	     -2.33164795	     -4.39161350	     -8.15996540	    -26.96656267	    -16.46223476	     21.31032533	     10.94040105	     -3.79662163	      3.85517123	      2.06440246
      3.52000000	     -5.64223731	      3.22866451	    -59.96742245	      0.12751314	      0.86092238	     -0.57456329	     28.67191184	      1.07924866	    -21.69785408	     -7.81024994	      4.14531603	     -2.63216942	     -5.06134476	     -7.98924617	    -27.17364899	    -16.53311815	     21.42231750	     11.29060216	     -3.75199480	      3.97433552	      1.98325510
      3.53000000	     -5.53172757	      3.21472517	    -60.28806998	      0.13107507	      0.85937346	     -0.56810158	     28.65057399	      0.90846211	    -21.91585431	     -8.60147559	      3.99010385	     -3.10016355	     -5.71627243	     -7.89793845	    -27.30236023	    -16.67718766	     21.48985413	     11.69260392	     -3.69518708	      4.15573896	      1.85533240
      3.54000000	     -5.42928644	      3.17226641	    -60.55120050	      0.13468226	      0.85793043	     -0.56139066	     28.54707509	      0.75608177	    -22.07292250	     -9.44321298	      3.71266984	     -3.61770375	     -6.37568215	     -7.84641783	    -27.32529578	    -16.85565692	     21.50058519	     12.07061569	     -3.63372959	      4.36558976	      1.65328995
      3.55000000	     -5.37708733	      3.09280360	    -60.75381036	      0.13826745	      0.85662671	     -0.55442999	     28.36231334	      0.68228781	    -22.20454879	    -10.24268018	      3.28527216	     -4.21777187	     -6.99938805	     -7.90087761	    -27.27202194	    -17.12391461	     21.46096467	     12.45734909	     -3.55580958	      4.64449009	      1.38444486
      3.56000000	     -5.40042907	      2.97940635	    -60.91316759	      0.14178795	      0.85550632	     -0.54719878	     28.11350911	      0.72629508	    -22.32921037	    -10.94292926	      2.71373952	     -4.92847205	     -7.58430333	     -8.07881773	    -27.15797198	    -17.46016661	     21.34868891	     12.85824945	     -3.44581264	      5.01173502	      1.07955979
      3.57000000	     -5.49202337	      2.84213778	    -61.05401138	      0.14518586	      0.85461766	     -0.53970609	     27.81904689	      0.89421423	    -22.41834424	    -11.51569868	      2.02771698	     -5.83482294	     -8.12971100	     -8.36613571	    -27.01578879	    -17.85707834	     21.14635425	     13.30659438	     -3.30420451	      5.45091945	      0.74378873
      3.58000000	     -5.64667977	      2.67905950	    -61.17848193	      0.14843028	      0.85404111	     -0.53201525	     27.48046183	      1.18245978	    -22.45980501	    -11.94702334	      1.27681280	     -6.88949109	     -8.61968780	     -8.75772986	    -26.77621686	    -18.33962109	     20.79266839	     13.77222537	     -3.14903198	      5.95454987	      0.41668001
      3.59000000	     -5.87174462	      2.45484838	    -61.29179852	      0.15150823	      0.85383137	     -0.52411769	     27.07518378	      1.60804808	    -22.47714647	    -12.26400912	      0.57092052	     -7.96639530	     -9.06772920	     -9.29544736	    -26.51166651	    -18.94987388	     20.34939131	     14.20588613	     -3.01412290	      6.54663070	      0.06501406
